<svg width="128" height="36" viewBox="0 0 128 36" fill="none" xmlns="http://www.w3.org/2000/svg">
  <path d="M12.8 7.2C17.1 7.2 20.8 10.9 20.8 15.2C20.8 19.5 17.1 23.2 12.8 23.2H8.4C7.3 23.2 6.4 24.1 6.4 25.2V28.8L3.2 25.6C1.8 24.2 1 22.3 1 20.4V15.2C1 10.9 4.7 7.2 9 7.2H12.8Z" fill="#4285F4"/>
  <path d="M23.2 28.8C18.9 28.8 15.2 25.1 15.2 20.8C15.2 16.5 18.9 12.8 23.2 12.8H27.6C28.7 12.8 29.6 11.9 29.6 10.8V7.2L32.8 10.4C34.2 11.8 35 13.7 35 15.6V20.8C35 25.1 31.3 28.8 27 28.8H23.2Z" fill="#EA4335"/>
  <g fill="#4285F4">
    <path d="M52.5 24.7H47.5L46.4 27.5H42.8L48.3 13.5H51.9L57.4 27.5H53.6L52.5 24.7ZM51.5 22L50 17.9L48.5 22H51.5Z"/>
    <path d="M58.3 13.5H61.8V24H68.1V27.5H58.3V13.5Z"/>
    <path d="M69.9 13.5H79.4V16.8H73.4V18.8H78.6V21.9H73.4V24.2H79.5V27.5H69.9V13.5Z"/>
    <path d="M82 13.5H85.5V27.5H82V13.5Z"/>
    <path d="M98.5 13.5V27.5H95.4L90.4 20.1V27.5H87V13.5H90.1L95.1 20.9V13.5H98.5Z"/>
    <path d="M111.3 22.8C111.3 24 110.9 25 110.1 25.8C109.3 26.6 108.2 27 106.9 27C105.8 27 104.8 26.7 104 26.1C103.2 25.5 102.6 24.6 102.2 23.5L105 22.4C105.2 23.1 105.5 23.6 105.9 23.9C106.3 24.2 106.7 24.3 107.3 24.3C107.8 24.3 108.3 24.2 108.6 23.9C108.9 23.6 109.1 23.3 109.1 22.8C109.1 21.6 108.1 21 106.1 21H105.2V18.4H106.1C107.9 18.4 108.8 17.8 108.8 16.7C108.8 16.3 108.6 15.9 108.4 15.7C108.1 15.5 107.8 15.3 107.3 15.3C106.8 15.3 106.4 15.5 106.1 15.8C105.8 16.1 105.5 16.5 105.3 17.1L102.6 16C102.9 15 103.5 14.2 104.3 13.6C105.1 13 106.1 12.7 107.2 12.7C108.5 12.7 109.6 13.1 110.4 13.9C111.2 14.7 111.6 15.6 111.6 16.7C111.6 18.2 110.9 19.2 109.6 19.9C110.3 20.2 110.8 20.6 111.1 21.1C111.2 21.7 111.3 22.2 111.3 22.8Z"/>
    <path d="M119.5 27.8C118.2 27.8 117 27.5 116 26.9C115 26.3 114.2 25.5 113.6 24.4C113 23.3 112.7 22.1 112.7 20.8C112.7 19.5 113 18.3 113.6 17.2C114.2 16.1 115 15.3 116 14.7C117 14.1 118.2 13.8 119.5 13.8C120.8 13.8 122 14.1 123 14.7C124 15.3 124.8 16.1 125.4 17.2C126 18.3 126.3 19.5 126.3 20.8C126.3 22.1 126 23.3 125.4 24.4C124.8 25.5 124 26.3 123 26.9C122 27.5 120.9 27.8 119.5 27.8ZM119.5 24.7C120.4 24.7 121.1 24.4 121.7 23.7C122.2 23.1 122.5 22.1 122.5 20.8C122.5 19.5 122.2 18.5 121.7 17.9C121.1 17.3 120.4 16.9 119.5 16.9C118.6 16.9 117.9 17.2 117.4 17.9C116.8 18.5 116.5 19.5 116.5 20.8C116.5 22.1 116.8 23.1 117.4 23.7C117.9 24.4 118.6 24.7 119.5 24.7Z"/>
  </g>
</svg> 